<?xml version="1.0" encoding="UTF-8" standalone="no"?>
<!DOCTYPE svg PUBLIC "-//W3C//DTD SVG 1.1//EN" "http://www.w3.org/Graphics/SVG/1.1/DTD/svg11.dtd">
<svg width="100%" height="100%" viewBox="0 0 1444 429" version="1.1" xmlns="http://www.w3.org/2000/svg" xmlns:xlink="http://www.w3.org/1999/xlink" xml:space="preserve" xmlns:serif="http://www.serif.com/" style="fill-rule:evenodd;clip-rule:evenodd;stroke-linejoin:round;stroke-miterlimit:2;">
    <g transform="matrix(1,0,0,1,-188.76,-188.29)">
        <path d="M402.86,188.29C284.62,188.29 188.76,284.15 188.76,402.39C188.76,520.63 284.62,616.49 402.86,616.49C521.1,616.49 616.96,520.63 616.96,402.39C616.96,284.15 521.1,188.29 402.86,188.29ZM402.86,583.51C302.83,583.51 221.74,502.42 221.74,402.39C221.74,302.36 302.83,221.27 402.86,221.27C502.89,221.27 583.98,302.36 583.98,402.39C583.98,502.42 502.89,583.51 402.86,583.51Z" style="fill:white;fill-rule:nonzero;"/>
    </g>
    <g transform="matrix(1,0,0,1,-188.76,-188.29)">
        <path d="M1624.02,540.79C1618.38,546.45 1611.57,549.28 1603.57,549.28C1595.57,549.28 1588.77,546.45 1583.16,540.79C1577.58,535.15 1574.78,528.32 1574.78,520.3C1574.78,512.28 1577.6,505.57 1583.23,499.93C1588.84,494.32 1595.62,491.51 1603.56,491.51C1611.5,491.51 1618.37,494.31 1624.01,499.93C1629.65,505.54 1632.46,512.33 1632.46,520.3C1632.46,528.27 1629.64,535.12 1624.01,540.79L1624.02,540.79ZM1586.04,502.76C1581.22,507.61 1578.8,513.47 1578.8,520.34C1578.8,527.21 1581.2,533.16 1586,538.04C1590.82,542.92 1596.68,545.35 1603.58,545.35C1610.48,545.35 1616.33,542.91 1621.16,538.04C1625.98,533.16 1628.4,527.27 1628.4,520.34C1628.4,513.41 1625.99,507.61 1621.16,502.76C1616.31,497.88 1610.45,495.45 1603.58,495.45C1596.71,495.45 1590.89,497.89 1586.04,502.76ZM1603.03,504.37C1606.96,504.37 1609.85,504.75 1611.68,505.51C1614.96,506.87 1616.6,509.55 1616.6,513.54C1616.6,516.37 1615.57,518.46 1613.51,519.8C1612.41,520.51 1610.89,521.02 1608.93,521.33C1611.41,521.72 1613.22,522.76 1614.37,524.43C1615.52,526.11 1616.09,527.74 1616.09,529.34L1616.09,531.66C1616.09,532.39 1616.12,533.18 1616.17,534.02C1616.22,534.86 1616.31,535.41 1616.45,535.67L1616.65,536.06L1611.42,536.06C1611.39,535.96 1611.37,535.85 1611.34,535.75C1611.31,535.65 1611.29,535.53 1611.26,535.4L1611.14,534.38L1611.14,531.87C1611.14,528.21 1610.14,525.79 1608.15,524.62C1606.97,523.94 1604.9,523.6 1601.94,523.6L1597.54,523.6L1597.54,536.07L1591.96,536.07L1591.96,504.38L1603.05,504.38L1603.03,504.37ZM1609.06,509.36C1607.65,508.57 1605.4,508.18 1602.3,508.18L1597.53,508.18L1597.53,519.66L1602.58,519.66C1604.95,519.66 1606.72,519.42 1607.9,518.95C1610.08,518.08 1611.17,516.43 1611.17,514C1611.17,511.69 1610.47,510.15 1609.06,509.36Z" style="fill:white;fill-rule:nonzero;"/>
    </g>
    <g transform="matrix(1,0,0,1,-188.76,-188.29)">
        <path d="M1065.8,302.22L1043.4,302.22C1043.4,302.22 1043.43,395.98 1043.45,439.3C1043.45,444.42 1043.12,449.49 1041.9,454.48C1040.26,461.21 1036.58,466.49 1029.96,468.82C1013.9,474.47 997.67,474.47 981.6,468.85C974.98,466.54 971.27,461.26 969.51,454.59C968.08,449.17 967.8,443.62 967.8,438.03C967.81,395.94 967.89,302.22 967.89,302.22L945.42,302.22C945.42,302.22 945.43,395.01 945.4,437.13C945.4,442 945.26,446.87 944.42,451.69C942.67,461.76 936.86,468.21 926.92,470.59C913.97,473.69 900.92,473.64 887.97,470.59C879.09,468.5 873.24,463.03 871.13,453.99C870.6,451.74 870.33,449.42 870.15,447.11C869.91,444.11 869.79,441.09 869.79,438.08C869.77,394 869.83,302.21 869.83,302.21L847.21,302.21C847.21,302.21 847.27,396.06 847.32,438.72C847.32,443.7 847.49,448.71 848.01,453.65C849.73,469.91 857.74,481.33 873.78,486.45C885.78,490.28 898.16,491.12 910.56,490.71C928.67,490.11 945.25,485.59 956.63,469.27C963.48,479.33 972.7,485.21 983.87,488.04C1001.59,492.53 1019.35,491.57 1036.87,487.21C1048.51,484.31 1057.79,477.83 1062.31,466.05C1065.13,458.69 1065.79,450.95 1065.8,443.15C1065.83,405.8 1065.8,302.21 1065.8,302.21L1065.8,302.22Z" style="fill:white;fill-rule:nonzero;"/>
    </g>
    <g transform="matrix(1,0,0,1,-188.76,-188.29)">
        <path d="M1246.79,350.36C1246.79,344.77 1246.36,339.25 1245.43,333.75C1243.53,322.47 1237.67,314.09 1227.41,308.87C1217.94,304.05 1207.72,302.21 1197.28,301.25C1177.1,299.39 1156.99,299.54 1137.04,303.6C1114.66,308.15 1103.74,320.18 1103.13,342.87C1102.51,366.16 1102.84,412.8 1102.76,412.8C1102.76,435.01 1102.79,457.23 1102.71,479.44L1102.7,479.44L1102.7,488.98L1125.38,488.98L1125.38,480.44C1125.26,461.11 1125.23,423.28 1125.23,423.28L1125.23,419.71L1224.4,419.71L1224.42,423.71C1224.42,423.71 1224.36,460.87 1224.3,479.45C1224.24,498.03 1224.3,488.99 1224.3,488.99L1246.85,488.99C1246.85,488.99 1246.76,393.74 1246.79,350.39L1246.79,350.36ZM1224.42,400.25L1125.25,400.25L1125.25,397.02C1125.25,397.02 1125.37,363.87 1125.41,347.3C1125.41,344.05 1125.75,340.84 1126.51,337.66C1129.08,326.86 1137.11,322.42 1146.95,320.37C1163.7,316.89 1180.59,317.37 1197.47,319.31C1200.67,319.68 1203.81,320.66 1206.93,321.54C1218.12,324.7 1223.34,332.58 1224.03,343.77C1224.35,348.85 1224.33,353.96 1224.34,359.06C1224.38,371.69 1224.42,396.96 1224.42,396.96L1224.42,400.25Z" style="fill:white;fill-rule:nonzero;"/>
    </g>
    <g transform="matrix(1,0,0,1,-188.76,-188.29)">
        <path d="M1396.9,392.65C1380.27,388.3 1363.12,386.78 1346.26,383.69C1337.94,382.17 1329.53,381.09 1321.25,379.39C1310.08,377.09 1304.61,370.16 1304.48,358.74C1304.43,354.57 1304.43,350.39 1304.59,346.21C1305.1,332.04 1310.47,324.18 1324.19,321.21C1345.26,316.64 1366.56,316.26 1387.53,322.34C1397.18,325.14 1401.91,332.25 1403.07,342.04C1403.72,347.55 1403.59,357.3 1403.59,357.3L1426,357.3L1426,351.7C1425.95,348.15 1426.05,344.82 1425.74,341.29C1423.91,320.46 1415.55,310.46 1395.45,304.78C1381.91,300.95 1367.98,300.79 1354.02,300.41C1339.7,300.78 1325.34,301.1 1311.35,305.12C1294.92,309.85 1284.71,319.87 1282.8,337.46C1281.96,345.23 1282.18,352.98 1282.16,360.75C1282.13,378.24 1291.77,391.43 1308.44,396.78C1320.65,400.7 1333.46,401.56 1345.99,403.81C1358.08,405.98 1370.28,407.51 1382.35,409.77C1392.58,411.68 1400.82,416.58 1402.9,427.76C1404.39,435.78 1403.96,443.96 1402.66,452.01C1401.25,460.7 1396.16,466.74 1387.73,469.1C1365.94,475.19 1343.94,474.93 1322.06,469.66C1311.67,467.16 1306.2,459.9 1304.99,449.27C1304.67,446.44 1304.55,443.6 1304.51,440.76L1304.53,440.76L1304.53,425.84L1282.1,425.84L1282.1,438.29C1282.06,445.11 1282.17,451.92 1283.59,458.66C1285.78,469.12 1291.33,477.11 1300.97,482.1C1306.37,484.9 1312.06,486.77 1318,487.98C1334.49,491.33 1351.19,491.55 1367.89,490.72C1378.18,490.21 1388.45,489.07 1398.37,485.84C1412.61,481.21 1422.2,472.5 1424.85,457.11C1426.38,448.22 1426.02,439.31 1426.03,430.39C1426.05,410.93 1415.84,397.6 1396.93,392.65L1396.9,392.65Z" style="fill:white;fill-rule:nonzero;"/>
    </g>
    <g transform="matrix(1,0,0,1,-188.76,-188.29)">
        <path d="M810.9,341.16C810.12,328.01 805.61,316.74 793.42,309.87C788.13,306.88 782.45,304.89 776.53,303.62C761.24,300.34 745.72,299.73 730.17,300.28C718.13,300.7 706.08,301.56 694.48,305.25C683.71,308.67 674.6,314.25 669.86,325.11C666.64,332.48 666,340.37 665.98,348.26C665.9,379.69 665.94,411.12 665.95,442.55C665.95,444.06 665.96,445.57 666.07,447.07C666.8,457.38 668.37,467.41 676.09,475.23C682.88,482.11 691.51,485.49 700.68,487.35C723.52,491.99 746.53,491.71 769.54,488.7C776.21,487.83 782.7,486.05 788.94,483.41C803.72,477.16 810.03,465.31 810.91,450.03C811.96,431.84 811.04,413.62 811.42,395.42C811.04,377.33 811.97,359.23 810.91,341.16L810.9,341.16ZM788.76,440.12C788.76,441.74 788.73,443.37 788.65,444.99C787.97,458.91 783.06,466.38 769.53,469.64C748.31,474.75 726.79,474.8 705.56,469.07C695.2,466.27 689.91,458.87 688.92,448.34C688.57,444.65 688.33,440.94 688.32,437.24C688.27,409.18 688.26,381.13 688.32,353.07C688.32,349.14 688.62,345.19 689.08,341.29C690.47,329.34 698.1,323.05 709.13,320.74C728.76,316.64 748.53,316.58 768.15,320.78C781.69,323.68 788.23,331.54 788.55,345.53C788.93,362.22 788.77,425.29 788.76,440.13L788.76,440.12Z" style="fill:white;fill-rule:nonzero;"/>
    </g>
    <g transform="matrix(1,0,0,1,-188.76,-188.29)">
        <path d="M1604.9,340.89C1603.57,327.47 1596.98,316.86 1584.8,310.18C1573.99,304.26 1562.17,302.61 1550.18,302.49C1523.15,302.22 1462.01,302.22 1462.01,302.22L1461.98,488.95L1484.55,488.95L1484.43,435.12C1484.43,435.12 1526.46,435.24 1545.83,435.16C1554.42,435.12 1562.94,434.42 1571.37,432.54C1590.65,428.25 1603.3,414.96 1605.02,395.42C1606.61,377.29 1606.7,359.02 1604.9,340.9L1604.9,340.89ZM1582.1,394.4C1580.32,405.56 1573.16,412.36 1562.42,415.52C1556.91,417.14 1551.25,417.51 1545.56,417.52C1526.31,417.55 1484.43,417.6 1484.43,417.6L1484.43,320.18C1484.43,320.18 1528.27,320.24 1548.68,320.24C1554.65,320.24 1560.48,321.13 1566.04,323.34C1575.91,327.28 1581.51,334.9 1582.55,345.18C1584.2,361.56 1584.7,378.05 1582.1,394.39L1582.1,394.4Z" style="fill:white;fill-rule:nonzero;"/>
    </g>
    <g transform="matrix(1,0,0,1,-188.76,-188.29)">
        <path d="M531.55,321.7C527.4,319.07 523.11,316.72 518.42,315.13C515.87,314.27 513.39,314.38 510.86,315.19C506.74,316.52 502.8,318.24 498.92,320.13C498.31,320.24 498.13,319.67 497.75,319.41C494.35,313.63 489.76,309.02 484.01,305.59C482.96,304.96 482.92,304.48 483.41,303.46C485.25,299.65 486.94,295.77 488.15,291.7C488.81,289.47 488.83,287.28 488.12,285.05C486.6,280.26 484.17,275.91 481.51,271.69C481.04,270.94 480.39,270.5 479.52,271.03C478.68,271.55 478.73,272.32 479.19,273.1C479.35,273.37 479.53,273.64 479.69,273.91C481.91,277.57 483.99,281.29 485.37,285.37C486.06,287.4 486.08,289.37 485.42,291.41C484.2,295.18 482.6,298.8 480.93,302.38C480.83,302.59 480.77,302.83 480.48,302.9C480.13,302.53 480.17,302.03 480.05,301.58C479.01,297.84 475.66,295.17 471.79,295.03C467.89,294.89 464.83,297.1 463.51,301.02C463.37,301.44 463.27,301.84 462.77,302.01C458.6,303.43 455.72,306.26 453.83,310.18C453.2,310.75 453.11,311.57 452.9,312.32C451.65,316.74 452.17,321.08 453.51,325.38C453.85,326.46 454.24,327.51 454.62,328.6C454.05,328.78 453.67,328.51 453.27,328.39C448.66,327.05 444.01,326.73 439.36,328C438.06,328.36 437.02,328.49 436.17,327.3C433.67,323.5 431.18,319.69 428.65,315.91C428.19,315.23 428.13,314.58 428.24,313.79C429.01,308.14 429.64,302.48 429.63,296.77C429.63,295.86 429.63,294.95 429.39,294.06C429.31,293.8 429.25,293.47 428.94,293.42C428.54,293.35 428.38,293.7 428.29,293.99C427.99,294.89 427.67,295.79 427.47,296.71C426.2,302.56 425.52,308.49 424.76,314.42C424.57,315.9 424.78,317.2 425.33,318.56C426.75,322.04 428.08,325.56 429.44,329.06C429.57,329.41 429.85,329.75 429.65,330.22C429.49,330.18 429.34,330.16 429.21,330.1C426.36,328.63 423.53,327.13 420.67,325.68C419.8,325.24 419.31,324.61 419.03,323.65C417.36,317.95 415.67,312.26 413.63,306.69C413.05,305.09 412.46,303.49 411.62,302.01C411.41,301.65 411.24,301.08 410.73,301.19C410.18,301.31 410.34,301.91 410.36,302.3C410.43,303.36 410.52,304.43 410.7,305.48C411.7,311.38 413.24,317.15 414.6,322.97C415.23,325.66 415.99,328.15 418.53,329.66C418.59,329.7 418.63,329.78 418.68,329.84C418.6,330.18 419.67,330.57 418.62,330.86C416.1,330.04 413.59,329.19 411.06,328.4C410.35,328.18 409.82,327.79 409.34,327.23C405.92,323.22 402.41,319.3 398.53,315.73C397.74,315.01 396.94,314.3 396,313.78C395.73,313.63 395.43,313.4 395.13,313.66C394.83,313.92 395.01,314.25 395.13,314.54C395.56,315.57 396.18,316.49 396.82,317.39C400.06,321.99 403.71,326.27 407.34,330.55C407.71,330.99 408.18,331.25 408.69,331.49C413.94,334 419.19,336.51 424.42,339.04C424.91,339.28 425.85,339.36 425.33,340.31C424.89,341.11 425.19,342.55 423.39,342.16C419.33,341.28 415.24,340.57 411.15,339.81C391.81,336.22 372.4,333.1 352.89,330.6C331.31,327.84 309.64,326.53 287.88,326.6C277.35,326.63 266.83,326.9 256.38,328.39C254.54,328.65 252.7,328.99 250.96,329.65C249.7,330.13 249.43,330.86 249.97,332.08C250.36,332.96 250.97,333.69 251.62,334.39C253.46,336.37 255.57,338.04 257.73,339.65C264.81,344.89 272.33,349.42 280.02,353.68C291.81,360.23 303.74,366.34 317.25,368.73C325.76,370.23 334.22,371.84 342.91,371.6C346.8,371.49 350.65,371.09 354.23,369.33C357.41,367.78 360.3,365.76 363.29,363.91C367.66,361.22 372.28,359.19 377.45,358.83C385.86,358.24 394.24,357.37 402.63,356.55C409.44,355.89 416.25,355.17 423.06,354.48C423.63,354.42 424.14,354.33 424.31,355.13C425.02,358.5 426.43,361.58 428.16,364.54C428.16,364.91 428.38,365.19 428.56,365.48C428.96,366.13 428.37,365.92 428.11,366C422.58,362.86 416.87,362.98 411.06,365.09C406.71,366.68 402.78,369.04 399.04,371.71C390.92,377.5 383.78,384.4 376.59,391.26C368.12,399.34 360.24,407.9 353.58,417.57C339.65,437.81 328.43,459.51 318.4,481.87C308.37,504.23 316.11,486.95 316.11,486.95L320.29,485.11C334.79,478.7 348.96,471.66 362.74,463.81C374.3,457.22 385.62,450.23 395.86,441.68C406.91,432.45 416.66,421.89 426.05,411C430.29,406.07 434.14,400.84 436.89,394.9C440.07,388.01 440.98,381.12 436.7,374.29L437.17,374.05C440.42,376.13 443.81,377.89 447.61,378.71C448.64,378.93 448.79,379.37 448.69,380.34C447.28,393.8 445.87,407.26 444.71,420.74C444.41,424.24 444.33,427.77 443.29,431.18C441.93,435.68 439.56,439.66 436.91,443.46C433.04,449 431.41,455.09 431.5,461.8C431.62,470.36 432.91,478.74 434.76,487.06C435.88,492.12 436.93,497.2 439,501.99C444.96,515.76 452.28,528.78 460.61,541.24C462.86,544.6 465.23,547.86 468.07,550.76C468.98,551.69 469.93,552.61 471.16,553.13C472.32,553.63 473.06,553.32 473.51,552.14C473.79,551.4 474.01,550.64 474.18,549.87C475.2,545.34 475.61,540.72 475.89,536.1C477.35,512.66 476.43,489.27 474.32,465.91C473.01,451.44 470.86,437.08 468.63,422.73C466.39,408.34 463.84,394.01 461.03,379.72C460.69,378 462.01,378.27 462.78,377.83C463.78,377.26 463.88,378.18 464.15,378.72C466.66,383.92 469.15,389.13 471.65,394.34C471.89,394.84 472.11,395.34 472.55,395.71C477.05,399.52 481.52,403.37 486.4,406.7C487.02,407.12 487.67,407.5 488.34,407.84C488.7,408.02 489.17,408.4 489.52,407.95C489.84,407.54 489.47,407.11 489.22,406.78C488.55,405.9 487.87,405.02 487.12,404.21C484.36,401.21 481.44,398.34 478.25,395.81C475.93,393.98 474.36,391.85 473.79,388.97C473.74,387.8 473.12,386.79 472.87,385.68C472.69,384.89 472.1,384.19 472.34,383.31C473.27,384.33 474.23,385.33 475.11,386.39C475.69,387.1 476.37,387.5 477.26,387.73C482.7,389.14 488.14,390.53 493.65,391.67C496.13,392.18 498.6,392.75 501.15,392.8C501.49,392.8 501.95,392.88 502.07,392.46C502.19,392.04 501.76,391.86 501.47,391.68C500.5,391.06 499.43,390.63 498.36,390.21C492.16,387.8 485.77,385.95 479.4,384.06C478.58,383.82 478.01,383.39 477.63,382.64C476.13,379.72 474.61,376.81 473.1,373.89C473.04,373.77 473.04,373.61 473,373.45C473.53,373.33 473.9,373.62 474.28,373.77C478.12,375.25 481.95,376.74 485.78,378.25C486.39,378.49 486.98,378.6 487.63,378.52C493.87,377.76 500.13,377.04 506.29,375.74C507.3,375.53 508.3,375.27 509.24,374.85C509.52,374.72 509.88,374.59 509.8,374.19C509.74,373.89 509.42,373.82 509.15,373.75C508.02,373.49 506.87,373.5 505.72,373.52C500.21,373.58 494.74,374.17 489.29,374.91C488.59,375 488.01,374.96 487.39,374.55C483.36,371.89 479.32,369.25 475.26,366.64C474.54,366.18 474.34,365.77 474.62,364.92C475.92,360.96 475.99,356.92 475.28,352.84C475,351.26 474.45,349.74 474.07,348.18C474.61,348 474.93,348.3 475.28,348.44C479.26,350.05 483.36,350.99 487.68,350.56C493.48,349.98 498,347.34 500.54,341.94C501.19,340.57 501.9,339.73 503.37,339.16C506.69,337.85 508.54,334.4 508.19,330.82C507.82,327.1 505.02,323.92 501.35,323.02C501,322.93 500.55,323.07 500.3,322.56C500.55,322.42 500.77,322.26 501.01,322.15C504.09,320.7 507.25,319.44 510.41,318.17C513.64,316.87 516.7,317.12 519.83,318.48C523.4,320.03 526.8,321.88 530.09,323.94C530.86,324.42 531.62,324.53 532.17,323.7C532.71,322.89 532.39,322.18 531.61,321.69L531.55,321.7Z" style="fill:white;fill-rule:nonzero;"/>
    </g>
</svg>
